<svg width="46" height="46" viewBox="0 0 46 46" fill="none" xmlns="http://www.w3.org/2000/svg">
<rect width="46" height="46" fill="url(#paint0_linear_47_118)"/>
<path d="M20.656 26.2236L19.664 11.5996H25.616L24.624 26.2236H20.656ZM22.64 34.2556C21.744 34.2556 21.008 33.9676 20.432 33.3916C19.856 32.8156 19.568 32.1329 19.568 31.3436C19.568 30.5329 19.856 29.8609 20.432 29.3276C21.008 28.7729 21.744 28.4956 22.64 28.4956C23.5573 28.4956 24.2933 28.7729 24.848 29.3276C25.424 29.8609 25.712 30.5329 25.712 31.3436C25.712 32.1329 25.424 32.8156 24.848 33.3916C24.2933 33.9676 23.5573 34.2556 22.64 34.2556Z" fill="#56777D"/>
<defs>
<linearGradient id="paint0_linear_47_118" x1="46" y1="-0.0766611" x2="0" y2="45.9233" gradientUnits="userSpaceOnUse">
<stop stop-color="#FFE9A9"/>
<stop offset="1" stop-color="#F5C435"/>
</linearGradient>
</defs>
</svg>
